<?xml version="1.0" standalone="no"?>
<!DOCTYPE svg PUBLIC "-//W3C//DTD SVG 20010904//EN"
 "http://www.w3.org/TR/2001/REC-SVG-20010904/DTD/svg10.dtd">
<svg version="1.0" xmlns="http://www.w3.org/2000/svg"
 width="512.000000pt" height="512.000000pt" viewBox="0 0 512.000000 512.000000"
 preserveAspectRatio="xMidYMid meet">
<metadata>
Created by potrace 1.14, written by Peter Selinger 2001-2017
</metadata>
<g transform="translate(0.000000,512.000000) scale(0.100000,-0.100000)"
fill="#000000" stroke="none">
<path d="M1259 4233 c-118 -141 -235 -283 -261 -313 l-47 -57 72 -59 c39 -32
81 -67 93 -76 21 -17 23 -16 130 114 l109 131 3 -307 2 -306 120 0 120 0 2
306 3 307 109 -131 c107 -130 109 -131 130 -114 12 9 54 44 93 76 l72 59 -47
57 c-26 30 -143 172 -261 313 -118 141 -217 257 -221 257 -4 0 -103 -116 -221
-257z"/>
<path d="M2320 4040 l0 -120 840 0 840 0 0 120 0 120 -840 0 -840 0 0 -120z"/>
<path d="M1358 2889 l-3 -312 -109 131 c-107 130 -109 131 -130 114 -12 -9
-54 -44 -93 -76 l-72 -59 47 -57 c26 -30 143 -172 261 -313 118 -141 217 -257
221 -257 4 0 103 116 221 257 118 141 235 283 261 313 l47 57 -72 59 c-39 32
-81 67 -93 76 -21 17 -23 16 -130 -114 l-109 -131 -3 312 -2 311 -120 0 -120
0 -2 -311z"/>
<path d="M2320 2680 l0 -120 840 0 840 0 0 120 0 120 -840 0 -840 0 0 -120z"/>
<path d="M1259 1683 c-118 -141 -235 -283 -261 -313 l-47 -57 72 -59 c39 -32
81 -67 93 -76 21 -17 23 -16 130 114 l109 131 3 -312 2 -311 120 0 120 0 2
311 3 312 109 -131 c107 -130 109 -131 130 -114 12 9 54 44 93 76 l72 59 -47
57 c-26 30 -143 172 -261 313 -118 141 -217 257 -221 257 -4 0 -103 -116 -221
-257z"/>
<path d="M2320 1240 l0 -120 840 0 840 0 0 120 0 120 -840 0 -840 0 0 -120z"/>
</g>
</svg>
