<?xml version="1.0" standalone="no"?>
<!DOCTYPE svg PUBLIC "-//W3C//DTD SVG 20010904//EN"
 "http://www.w3.org/TR/2001/REC-SVG-20010904/DTD/svg10.dtd">
<svg version="1.0" xmlns="http://www.w3.org/2000/svg"
 width="375.000000pt" height="375.000000pt" viewBox="0 0 375.000000 375.000000"
 preserveAspectRatio="xMidYMid meet">
<metadata>
Created by potrace 1.14, written by Peter Selinger 2001-2017
</metadata>
<g transform="translate(0.000000,375.000000) scale(0.100000,-0.100000)"
fill="#000000" stroke="none">
<path d="M1650 3476 c-610 -89 -1113 -509 -1308 -1093 -58 -172 -77 -296 -77
-508 1 -214 12 -295 71 -485 81 -259 206 -463 403 -660 274 -274 598 -423 997
-461 448 -42 933 133 1262 454 552 539 638 1406 204 2052 -240 358 -601 599
-1028 686 -131 26 -392 34 -524 15z m240 -350 c0 -136 48 -245 149 -339 181
-167 449 -168 637 -3 l52 46 64 -69 c123 -130 215 -281 263 -434 14 -43 25
-80 25 -81 0 -2 -17 -7 -37 -11 -53 -10 -141 -57 -194 -104 -157 -138 -201
-380 -104 -570 35 -70 125 -163 190 -197 30 -16 55 -34 55 -40 0 -15 -104
-180 -148 -234 -78 -95 -295 -294 -306 -279 -57 82 -86 114 -125 144 -253 185
-586 108 -716 -167 -19 -40 -39 -95 -44 -121 -5 -26 -11 -50 -14 -53 -16 -17
-274 64 -392 123 -81 41 -225 133 -225 145 0 4 15 27 33 51 136 178 115 449
-48 611 -101 102 -269 161 -396 140 -33 -6 -62 -7 -65 -3 -2 4 -9 55 -14 113
-15 157 2 312 52 484 19 66 24 73 42 67 98 -28 139 -35 196 -35 130 0 236 44
325 135 141 142 178 353 95 533 l-29 62 60 30 c148 75 357 124 547 128 l72 2
0 -74z"/>
<path d="M1771 2339 c-238 -47 -411 -295 -372 -533 14 -83 57 -182 106 -242
81 -99 226 -164 365 -164 435 0 639 535 316 827 -110 100 -265 142 -415 112z"/>
</g>
</svg>
